<?xml version="1.0" encoding="iso-8859-1"?>
<!-- Generator: Adobe Illustrator 19.0.0, SVG Export Plug-In . SVG Version: 6.00 Build 0)  -->
<svg xmlns="http://www.w3.org/2000/svg" xmlns:xlink="http://www.w3.org/1999/xlink" version="1.1" id="Capa_1" x="0px" y="0px" viewBox="0 0 511.4 511.4" style="enable-background:new 0 0 511.4 511.4;" xml:space="preserve" width="512px" height="512px">
<g>
	<g>
		<g>
			<path d="M418.967,102.891l23.376-21.856c-7.78-8.307-16.096-16.094-24.896-23.312l-20.288,24.752     C404.873,88.79,412.158,95.611,418.967,102.891z" fill="#ffffff"/>
			<path d="M453.527,151.371l28.288-14.944c-5.305-10.06-11.282-19.751-17.888-29.008l-26.064,18.56     C443.643,134.086,448.876,142.569,453.527,151.371z" fill="#ffffff"/>
			<path d="M495.703,167.547v0.016l-30.032,11.04c42.684,116.115-16.843,244.847-132.958,287.531S87.867,449.292,45.182,333.177     S62.025,88.33,178.14,45.646c64.467-23.698,136.244-16.51,194.731,19.502l16.816-27.2     C269.426-36.042,111.955,1.469,37.965,121.73S1.486,399.463,121.748,473.452s277.733,36.479,351.722-83.783     C514.521,322.946,522.715,241.084,495.703,167.547z" fill="#ffffff"/>
			<path d="M303.367,431.899v-48.816c39.225-4.087,67.711-39.198,63.624-78.423c-2.003-19.228-11.716-36.821-26.92-48.761     c17.166-13.524,27.218-34.146,27.296-56c-0.115-36.555-27.663-67.195-64-71.184V79.899h-32v48h-32v-48h-32v48h-64v256h64v48h32     v-48h32v48H303.367z M175.367,159.899h120c22.091,0,40,17.909,40,40s-17.909,40-40,40h-120V159.899z M175.367,351.899v-80h120     c22.091,0,40,17.909,40,40c0,22.091-17.909,40-40,40H175.367z" fill="#ffffff"/>
		</g>
	</g>
</g>
<g>
</g>
<g>
</g>
<g>
</g>
<g>
</g>
<g>
</g>
<g>
</g>
<g>
</g>
<g>
</g>
<g>
</g>
<g>
</g>
<g>
</g>
<g>
</g>
<g>
</g>
<g>
</g>
<g>
</g>
</svg>
